# xmcd
#
# Track frame offsets:
#	150
#	18130
#	34402
#	50052
#	64157
#	77537
#	90942
#	104787
#	118435
#	132487
#
# Disc length: 1973 seconds
#
# Revision: 0
# Processed by: cddbd v1.5.2PL0 Copyright (c) Steve Scherf et al.
# Submitted via: audiograbber 1.83.01
#
DISCID=8a07b30a
DTITLE=Bill Anderson - Country From The Heart
DYEAR=1900
DGENRE=Country
TTITLE0=A Place In The Country
TTITLE1=Once More
TTITLE2=No Ordinary Memory
TTITLE3=The Unicorn
TTITLE4=Your Eyes
TTITLE5=Fathers and Sons
TTITLE6=I Wonder Where You Are Tonight
TTITLE7=Maybe Go Down
TTITLE8=Family Reunion
TTITLE9=We May never Pass This Way Again
EXTD=
EXTT0=
EXTT1=
EXTT2=
EXTT3=
EXTT4=
EXTT5=
EXTT6=
EXTT7=
EXTT8=
EXTT9=
PLAYORDER=
